<svg width="17" height="17" viewBox="0 0 17 17" fill="none" xmlns="http://www.w3.org/2000/svg">
<g clip-path="url(#clip0_26_412)">
<path d="M1.41761 8.48925C1.36031 8.3349 1.36031 8.16511 1.41761 8.01075C1.97565 6.65765 2.9229 5.50072 4.13926 4.68662C5.35562 3.87252 6.78632 3.43793 8.24998 3.43793C9.71364 3.43793 11.1443 3.87252 12.3607 4.68662C13.5771 5.50072 14.5243 6.65765 15.0824 8.01075C15.1397 8.16511 15.1397 8.3349 15.0824 8.48925C14.5243 9.84235 13.5771 10.9993 12.3607 11.8134C11.1443 12.6275 9.71364 13.0621 8.24998 13.0621C6.78632 13.0621 5.35562 12.6275 4.13926 11.8134C2.9229 10.9993 1.97565 9.84235 1.41761 8.48925Z" stroke="#2563EB" stroke-width="1.375" stroke-linecap="round" stroke-linejoin="round"/>
<path d="M8.25 10.3125C9.38909 10.3125 10.3125 9.38909 10.3125 8.25C10.3125 7.11091 9.38909 6.1875 8.25 6.1875C7.11091 6.1875 6.1875 7.11091 6.1875 8.25C6.1875 9.38909 7.11091 10.3125 8.25 10.3125Z" stroke="#2563EB" stroke-width="1.375" stroke-linecap="round" stroke-linejoin="round"/>
</g>
<defs>
<clipPath id="clip0_26_412">
<rect width="16.5" height="16.5" fill="white"/>
</clipPath>
</defs>
</svg>
