<svg width="17" height="17" viewBox="0 0 17 17" fill="none" xmlns="http://www.w3.org/2000/svg">
<g clip-path="url(#clip0_26_400)">
<path d="M4.125 9.62501L5.15625 7.63126C5.26836 7.4086 5.4389 7.22062 5.64961 7.08741C5.86032 6.9542 6.10328 6.88078 6.3525 6.87501H13.75M13.75 6.87501C13.9601 6.87464 14.1674 6.9224 14.3561 7.01462C14.5448 7.10685 14.7099 7.24109 14.8387 7.40704C14.9675 7.57299 15.0565 7.76623 15.099 7.97195C15.1415 8.17766 15.1363 8.39037 15.0838 8.59376L14.025 12.7188C13.9484 13.0155 13.7749 13.2781 13.532 13.4649C13.2891 13.6517 12.9908 13.7521 12.6844 13.75H2.75C2.38533 13.75 2.03559 13.6051 1.77773 13.3473C1.51987 13.0894 1.375 12.7397 1.375 12.375V3.43751C1.375 3.07283 1.51987 2.7231 1.77773 2.46523C2.03559 2.20737 2.38533 2.06251 2.75 2.06251H5.43125C5.66121 2.06025 5.88806 2.11571 6.09104 2.22381C6.29402 2.3319 6.46665 2.48918 6.59313 2.68126L7.15 3.50625C7.2752 3.69637 7.44564 3.85243 7.64603 3.96042C7.84642 4.06841 8.07049 4.12497 8.29812 4.12501H12.375C12.7397 4.12501 13.0894 4.26987 13.3473 4.52773C13.6051 4.7856 13.75 5.13533 13.75 5.50001V6.87501Z" stroke="#2563EB" stroke-width="1.375" stroke-linecap="round" stroke-linejoin="round"/>
</g>
<defs>
<clipPath id="clip0_26_400">
<rect width="16.5" height="16.5" fill="white"/>
</clipPath>
</defs>
</svg>
