<svg width="17" height="17" viewBox="0 0 17 17" fill="none" xmlns="http://www.w3.org/2000/svg">
<g clip-path="url(#clip0_26_440)">
<path d="M1.375 6.53125C1.37501 5.7662 1.6071 5.01915 2.04059 4.38877C2.47409 3.75838 3.08861 3.27432 3.80298 3.00052C4.51736 2.72672 5.29798 2.67605 6.04176 2.85521C6.78553 3.03438 7.45747 3.43494 7.96881 4.004C8.00483 4.04251 8.04837 4.07321 8.09674 4.0942C8.14511 4.11519 8.19727 4.12602 8.25 4.12602C8.30273 4.12602 8.35489 4.11519 8.40326 4.0942C8.45163 4.07321 8.49517 4.04251 8.53119 4.004C9.04093 3.43124 9.71301 3.02731 10.458 2.84597C11.203 2.66463 11.9855 2.71449 12.7015 2.98889C13.4174 3.2633 14.0328 3.74925 14.4658 4.38205C14.8987 5.01486 15.1287 5.76452 15.125 6.53125C15.125 8.10562 14.0938 9.28125 13.0625 10.3125L9.28675 13.9652C9.15865 14.1123 9.0007 14.2305 8.82341 14.3119C8.64611 14.3933 8.45353 14.436 8.25845 14.4373C8.06337 14.4385 7.87026 14.3982 7.69195 14.3191C7.51364 14.2399 7.35421 14.1237 7.22425 13.9782L3.4375 10.3125C2.40625 9.28125 1.375 8.1125 1.375 6.53125Z" stroke="#2563EB" stroke-width="1.375" stroke-linecap="round" stroke-linejoin="round"/>
</g>
<defs>
<clipPath id="clip0_26_440">
<rect width="16.5" height="16.5" fill="white"/>
</clipPath>
</defs>
</svg>
