<svg width="20" height="20" viewBox="0 0 20 20" fill="none" xmlns="http://www.w3.org/2000/svg">
<path d="M9.81738 10.2262C10.0433 10.2262 10.2264 10.0431 10.2264 9.81719C10.2264 9.59128 10.0433 9.40814 9.81738 9.40814C9.59146 9.40814 9.40833 9.59128 9.40833 9.81719C9.40833 10.0431 9.59146 10.2262 9.81738 10.2262Z" stroke="#94A3B8" stroke-width="0.8181" stroke-linecap="round" stroke-linejoin="round"/>
<path d="M9.81738 7.36296C10.0433 7.36296 10.2264 7.17982 10.2264 6.95391C10.2264 6.728 10.0433 6.54486 9.81738 6.54486C9.59146 6.54486 9.40833 6.728 9.40833 6.95391C9.40833 7.17982 9.59146 7.36296 9.81738 7.36296Z" stroke="#94A3B8" stroke-width="0.8181" stroke-linecap="round" stroke-linejoin="round"/>
<path d="M9.81738 13.0896C10.0433 13.0896 10.2264 12.9065 10.2264 12.6806C10.2264 12.4547 10.0433 12.2715 9.81738 12.2715C9.59146 12.2715 9.40833 12.4547 9.40833 12.6806C9.40833 12.9065 9.59146 13.0896 9.81738 13.0896Z" stroke="#94A3B8" stroke-width="0.8181" stroke-linecap="round" stroke-linejoin="round"/>
</svg>
