<svg width="36" height="36" viewBox="0 0 36 36" fill="none" xmlns="http://www.w3.org/2000/svg">
<path d="M16.8453 24C16.9624 24.2027 17.1307 24.371 17.3334 24.488C17.5361 24.605 17.766 24.6666 18 24.6666C18.234 24.6666 18.464 24.605 18.6666 24.488C18.8693 24.371 19.0376 24.2027 19.1547 24" stroke="white" stroke-width="1.33333" stroke-linecap="round" stroke-linejoin="round"/>
<path d="M12.1747 20.2173C12.0876 20.3128 12.0301 20.4315 12.0092 20.559C11.9884 20.6865 12.005 20.8174 12.0571 20.9356C12.1093 21.0538 12.1946 21.1544 12.3028 21.225C12.4111 21.2956 12.5375 21.3332 12.6667 21.3333H23.3333C23.4625 21.3334 23.589 21.2959 23.6972 21.2254C23.8055 21.1549 23.891 21.0545 23.9433 20.9363C23.9955 20.8182 24.0123 20.6874 23.9916 20.5599C23.9709 20.4323 23.9136 20.3136 23.8267 20.218C22.94 19.304 22 18.3327 22 15.3333C22 14.2725 21.5786 13.2551 20.8284 12.5049C20.0783 11.7548 19.0609 11.3333 18 11.3333C16.9391 11.3333 15.9217 11.7548 15.1716 12.5049C14.4214 13.2551 14 14.2725 14 15.3333C14 18.3327 13.0593 19.304 12.1747 20.2173Z" stroke="white" stroke-width="1.33333" stroke-linecap="round" stroke-linejoin="round"/>
<path d="M20 12C20 9.79086 21.7909 8 24 8C26.2091 8 28 9.79086 28 12C28 14.2091 26.2091 16 24 16C21.7909 16 20 14.2091 20 12Z" fill="#2563EB"/>
</svg>
