<svg width="20" height="20" viewBox="0 0 20 20" fill="none" xmlns="http://www.w3.org/2000/svg">
<path d="M17.6667 6.99999C18.0834 7.31666 18.3334 7.80832 18.3334 8.33332V16.6667C18.3334 17.1087 18.1578 17.5326 17.8452 17.8452C17.5326 18.1577 17.1087 18.3333 16.6667 18.3333H3.33335C2.89133 18.3333 2.4674 18.1577 2.15484 17.8452C1.84228 17.5326 1.66669 17.1087 1.66669 16.6667V8.33332C1.66669 8.07458 1.72693 7.81939 1.84264 7.58797C1.95835 7.35654 2.12636 7.15523 2.33335 6.99999L9.00002 1.99999C9.28851 1.78362 9.6394 1.66666 10 1.66666C10.3606 1.66666 10.7115 1.78362 11 1.99999L17.6667 6.99999Z" stroke="#155DFC" stroke-width="1.66667" stroke-linecap="round" stroke-linejoin="round"/>
<path d="M18.3334 8.33334L10.8584 13.0833C10.6011 13.2445 10.3036 13.33 10 13.33C9.69642 13.33 9.39896 13.2445 9.14169 13.0833L1.66669 8.33334" stroke="#155DFC" stroke-width="1.66667" stroke-linecap="round" stroke-linejoin="round"/>
</svg>
