<svg width="25" height="25" viewBox="0 0 25 25" fill="none" xmlns="http://www.w3.org/2000/svg">
<path d="M15.2494 2.03326H6.09974C5.56048 2.03326 5.04331 2.24748 4.662 2.62879C4.28069 3.01011 4.06647 3.52728 4.06647 4.06653V20.3327C4.06647 20.8719 4.28069 21.3891 4.662 21.7704C5.04331 22.1517 5.56048 22.366 6.09974 22.366H18.2994C18.8386 22.366 19.3558 22.1517 19.7371 21.7704C20.1184 21.3891 20.3326 20.8719 20.3326 20.3327V7.11644L15.2494 2.03326Z" stroke="white" stroke-width="2.03327" stroke-linecap="round" stroke-linejoin="round"/>
<path d="M14.2329 2.03326V6.0998C14.2329 6.63906 14.4471 7.15623 14.8284 7.53754C15.2098 7.91885 15.7269 8.13307 16.2662 8.13307H20.3327" stroke="white" stroke-width="2.03327" stroke-linecap="round" stroke-linejoin="round"/>
<path d="M10.1664 9.1496H8.13312" stroke="white" stroke-width="2.03327" stroke-linecap="round" stroke-linejoin="round"/>
<path d="M16.2662 13.2162H8.13312" stroke="white" stroke-width="2.03327" stroke-linecap="round" stroke-linejoin="round"/>
<path d="M16.2662 17.2829H8.13312" stroke="white" stroke-width="2.03327" stroke-linecap="round" stroke-linejoin="round"/>
</svg>
