<svg width="25" height="25" viewBox="0 0 25 25" fill="none" xmlns="http://www.w3.org/2000/svg">
<path d="M9.83202 4.20484C9.88804 3.61554 10.1618 3.06829 10.5997 2.67001C11.0376 2.27172 11.6083 2.05103 12.2003 2.05103C12.7922 2.05103 13.3629 2.27172 13.8009 2.67001C14.2388 3.06829 14.5125 3.61554 14.5685 4.20484C14.6022 4.58552 14.7271 4.95249 14.9326 5.27469C15.1382 5.59688 15.4183 5.86481 15.7493 6.0558C16.0803 6.2468 16.4525 6.35523 16.8343 6.37192C17.2161 6.38861 17.5963 6.31307 17.9427 6.1517C18.4806 5.90748 19.0902 5.87214 19.6527 6.05256C20.2152 6.23298 20.6905 6.61625 20.9861 7.12777C21.2816 7.6393 21.3762 8.24248 21.2515 8.81992C21.1268 9.39737 20.7918 9.90777 20.3115 10.2518C19.9988 10.4712 19.7435 10.7628 19.5672 11.1017C19.391 11.4407 19.299 11.8171 19.299 12.1991C19.299 12.5812 19.391 12.9576 19.5672 13.2966C19.7435 13.6355 19.9988 13.9271 20.3115 14.1465C20.7918 14.4905 21.1268 15.0009 21.2515 15.5784C21.3762 16.1558 21.2816 16.759 20.9861 17.2705C20.6905 17.782 20.2152 18.1653 19.6527 18.3457C19.0902 18.5262 18.4806 18.4908 17.9427 18.2466C17.5963 18.0852 17.2161 18.0097 16.8343 18.0264C16.4525 18.0431 16.0803 18.1515 15.7493 18.3425C15.4183 18.5335 15.1382 18.8014 14.9326 19.1236C14.7271 19.4458 14.6022 19.8128 14.5685 20.1935C14.5125 20.7828 14.2388 21.33 13.8009 21.7283C13.3629 22.1266 12.7922 22.3473 12.2003 22.3473C11.6083 22.3473 11.0376 22.1266 10.5997 21.7283C10.1618 21.33 9.88804 20.7828 9.83202 20.1935C9.79842 19.8126 9.67353 19.4455 9.46793 19.1232C9.26234 18.8009 8.98209 18.5329 8.65093 18.3419C8.31977 18.1509 7.94746 18.0425 7.56552 18.0259C7.18358 18.0093 6.80327 18.085 6.4568 18.2466C5.91889 18.4908 5.30935 18.5262 4.74682 18.3457C4.18429 18.1653 3.70901 17.782 3.41348 17.2705C3.11796 16.759 3.02333 16.1558 3.14802 15.5784C3.2727 15.0009 3.60778 14.4905 4.08804 14.1465C4.40078 13.9271 4.65606 13.6355 4.83231 13.2966C5.00855 12.9576 5.10056 12.5812 5.10056 12.1991C5.10056 11.8171 5.00855 11.4407 4.83231 11.1017C4.65606 10.7628 4.40078 10.4712 4.08804 10.2518C3.60846 9.9076 3.27397 9.3974 3.14958 8.82034C3.0252 8.24329 3.1198 7.6406 3.41501 7.12941C3.71022 6.61821 4.18494 6.23504 4.74691 6.05434C5.30888 5.87365 5.91796 5.90835 6.45578 6.1517C6.80221 6.31307 7.18241 6.38861 7.56422 6.37192C7.94602 6.35523 8.31819 6.2468 8.64921 6.0558C8.98023 5.86481 9.26036 5.59688 9.4659 5.27469C9.67144 4.95249 9.79632 4.58552 9.82999 4.20484" stroke="white" stroke-width="2.03327" stroke-linecap="round" stroke-linejoin="round"/>
<path d="M12.1997 15.2494C13.8841 15.2494 15.2496 13.8839 15.2496 12.1995C15.2496 10.5151 13.8841 9.1496 12.1997 9.1496C10.5153 9.1496 9.14978 10.5151 9.14978 12.1995C9.14978 13.8839 10.5153 15.2494 12.1997 15.2494Z" stroke="white" stroke-width="2.03327" stroke-linecap="round" stroke-linejoin="round"/>
</svg>
