<svg width="16" height="16" viewBox="0 0 16 16" fill="none" xmlns="http://www.w3.org/2000/svg">
<path d="M10 14.6666V12C10.0928 11.1648 9.85329 10.3267 9.33334 9.66665C11.3333 9.66665 13.3333 8.33331 13.3333 5.99998C13.3867 5.16665 13.1533 4.34665 12.6667 3.66665C12.8533 2.89998 12.8533 2.09998 12.6667 1.33331C12.6667 1.33331 12 1.33331 10.6667 2.33331C8.90667 1.99998 7.09334 1.99998 5.33334 2.33331C4 1.33331 3.33334 1.33331 3.33334 1.33331C3.13334 2.09998 3.13334 2.89998 3.33334 3.66665C2.84792 4.3439 2.61232 5.1685 2.66667 5.99998C2.66667 8.33331 4.66667 9.66665 6.66667 9.66665C6.40667 9.99331 6.21334 10.3666 6.1 10.7666C5.98667 11.1666 5.95334 11.5866 6 12V14.6666" stroke="#90A1B9" stroke-width="1.33333" stroke-linecap="round" stroke-linejoin="round"/>
<path d="M5.99998 12C2.99331 13.3334 2.66665 10.6667 1.33331 10.6667" stroke="#90A1B9" stroke-width="1.33333" stroke-linecap="round" stroke-linejoin="round"/>
</svg>
