<svg width="20" height="20" viewBox="0 0 20 20" fill="none" xmlns="http://www.w3.org/2000/svg">
<path d="M5 11.6667L6.25 9.24999C6.38589 8.98007 6.5926 8.75224 6.84801 8.59074C7.10342 8.42932 7.39792 8.34032 7.7 8.33332H16.6667M16.6667 8.33332C16.9213 8.33287 17.1726 8.39074 17.4013 8.50257C17.6301 8.61432 17.8303 8.77707 17.9863 8.97824C18.1424 9.17932 18.2503 9.41357 18.3018 9.66299C18.3533 9.91232 18.347 10.1702 18.2833 10.4167L17 15.4167C16.9072 15.7763 16.6968 16.0946 16.4024 16.3211C16.108 16.5475 15.7464 16.6692 15.375 16.6667H3.33333C2.89131 16.6667 2.46738 16.4911 2.15483 16.1785C1.84226 15.8659 1.66667 15.442 1.66667 15V4.16666C1.66667 3.72463 1.84226 3.30071 2.15483 2.98815C2.46738 2.67558 2.89131 2.49999 3.33333 2.49999H6.58333C6.86208 2.49726 7.13704 2.56448 7.38308 2.69551C7.62913 2.82653 7.83837 3.01717 7.99167 3.24999L8.66667 4.24999C8.81842 4.48043 9.025 4.66959 9.26792 4.80049C9.51083 4.9314 9.78242 4.99995 10.0583 4.99999H15C15.442 4.99999 15.8659 5.17558 16.1785 5.48815C16.4911 5.80071 16.6667 6.22463 16.6667 6.66666V8.33332Z" stroke="#94A3B8" stroke-width="1.66667" stroke-linecap="round" stroke-linejoin="round"/>
</svg>
