<svg width="20" height="20" viewBox="0 0 20 20" fill="none" xmlns="http://www.w3.org/2000/svg">
<path d="M8.05916 3.44669C8.10508 2.96364 8.32944 2.51506 8.68842 2.18859C9.04739 1.86212 9.51519 1.68121 10.0004 1.68121C10.4856 1.68121 10.9534 1.86212 11.3124 2.18859C11.6714 2.51506 11.8957 2.96364 11.9417 3.44669C11.9693 3.75874 12.0716 4.05954 12.2401 4.32364C12.4086 4.58774 12.6382 4.80737 12.9096 4.96392C13.1809 5.12048 13.486 5.20936 13.7989 5.22304C14.1119 5.23672 14.4235 5.1748 14.7075 5.04252C15.1484 4.84234 15.6481 4.81337 16.1092 4.96126C16.5703 5.10915 16.9599 5.42332 17.2021 5.84261C17.4443 6.26191 17.5219 6.75633 17.4197 7.22967C17.3175 7.703 17.0428 8.12137 16.6492 8.40336C16.3928 8.58323 16.1836 8.8222 16.0391 9.10005C15.8946 9.37789 15.8192 9.68645 15.8192 9.99961C15.8192 10.3128 15.8946 10.6213 16.0391 10.8992C16.1836 11.177 16.3928 11.416 16.6492 11.5959C17.0428 11.8778 17.3175 12.2962 17.4197 12.7695C17.5219 13.2429 17.4443 13.7373 17.2021 14.1566C16.9599 14.5759 16.5703 14.8901 16.1092 15.038C15.6481 15.1858 15.1484 15.1569 14.7075 14.9567C14.4235 14.8244 14.1119 14.7625 13.7989 14.7762C13.486 14.7899 13.1809 14.8787 12.9096 15.0353C12.6382 15.1918 12.4086 15.4115 12.2401 15.6756C12.0716 15.9397 11.9693 16.2405 11.9417 16.5525C11.8957 17.0356 11.6714 17.4842 11.3124 17.8106C10.9534 18.1371 10.4856 18.318 10.0004 18.318C9.51519 18.318 9.04739 18.1371 8.68842 17.8106C8.32944 17.4842 8.10508 17.0356 8.05916 16.5525C8.03162 16.2404 7.92925 15.9394 7.76072 15.6753C7.59219 15.4111 7.36248 15.1914 7.09103 15.0348C6.81958 14.8782 6.51439 14.7894 6.20131 14.7758C5.88824 14.7622 5.5765 14.8242 5.2925 14.9567C4.85157 15.1569 4.35194 15.1858 3.89083 15.038C3.42973 14.8901 3.04014 14.5759 2.7979 14.1566C2.55566 13.7373 2.47809 13.2429 2.5803 12.7695C2.6825 12.2962 2.95717 11.8778 3.35083 11.5959C3.60718 11.416 3.81644 11.177 3.96091 10.8992C4.10537 10.6213 4.18079 10.3128 4.18079 9.99961C4.18079 9.68645 4.10537 9.37789 3.96091 9.10005C3.81644 8.8222 3.60718 8.58323 3.35083 8.40336C2.95772 8.12123 2.68354 7.70302 2.58158 7.23001C2.47963 6.757 2.55717 6.26297 2.79915 5.84395C3.04113 5.42493 3.43026 5.11084 3.89091 4.96272C4.35155 4.81461 4.85082 4.84305 5.29166 5.04252C5.57563 5.1748 5.88728 5.23672 6.20025 5.22304C6.51321 5.20936 6.81827 5.12048 7.08961 4.96392C7.36095 4.80737 7.59058 4.58774 7.75905 4.32364C7.92753 4.05954 8.0299 3.75874 8.0575 3.44669" stroke="#94A3B8" stroke-width="1.66667" stroke-linecap="round" stroke-linejoin="round"/>
<path d="M10 12.5C11.3807 12.5 12.5 11.3807 12.5 10C12.5 8.61929 11.3807 7.5 10 7.5C8.61929 7.5 7.5 8.61929 7.5 10C7.5 11.3807 8.61929 12.5 10 12.5Z" stroke="#94A3B8" stroke-width="1.66667" stroke-linecap="round" stroke-linejoin="round"/>
</svg>
