<svg width="18" height="18" viewBox="0 0 18 18" fill="none" xmlns="http://www.w3.org/2000/svg">
<path d="M11.5281 9.3661L15.2913 11.8749C15.3455 11.911 15.4085 11.9317 15.4736 11.9348C15.5387 11.9379 15.6034 11.9233 15.6609 11.8926C15.7183 11.8618 15.7664 11.816 15.7998 11.7602C15.8333 11.7043 15.8511 11.6403 15.8511 11.5752V5.66993C15.8511 5.60654 15.8344 5.54427 15.8027 5.4894C15.7709 5.43454 15.7252 5.38902 15.6703 5.35745C15.6153 5.32587 15.553 5.30936 15.4896 5.30957C15.4262 5.30979 15.364 5.32672 15.3093 5.35867L11.5281 7.56485" stroke="#155DFC" stroke-width="1.441" stroke-linecap="round" stroke-linejoin="round"/>
<path d="M10.0869 4.32275H2.88192C2.08608 4.32275 1.44092 4.96791 1.44092 5.76376V11.5278C1.44092 12.3236 2.08608 12.9688 2.88192 12.9688H10.0869C10.8828 12.9688 11.5279 12.3236 11.5279 11.5278V5.76376C11.5279 4.96791 10.8828 4.32275 10.0869 4.32275Z" stroke="#155DFC" stroke-width="1.441" stroke-linecap="round" stroke-linejoin="round"/>
</svg>
