<svg width="18" height="18" viewBox="0 0 18 18" fill="none" xmlns="http://www.w3.org/2000/svg">
<g clip-path="url(#clip0_26_7544)">
<path d="M15.1305 5.76355C15.1303 5.51085 15.0636 5.26266 14.9371 5.04388C14.8106 4.82511 14.6289 4.64343 14.41 4.51708L9.36651 1.63507C9.14745 1.5086 8.89896 1.44202 8.64601 1.44202C8.39306 1.44202 8.14457 1.5086 7.92551 1.63507L2.882 4.51708C2.66316 4.64343 2.48139 4.82511 2.35493 5.04388C2.22846 5.26266 2.16176 5.51085 2.1615 5.76355V11.5276C2.16176 11.7803 2.22846 12.0284 2.35493 12.2472C2.48139 12.466 2.66316 12.6477 2.882 12.774L7.92551 15.656C8.14457 15.7825 8.39306 15.8491 8.64601 15.8491C8.89896 15.8491 9.14745 15.7825 9.36651 15.656L14.41 12.774C14.6289 12.6477 14.8106 12.466 14.9371 12.2472C15.0636 12.0284 15.1303 11.7803 15.1305 11.5276V5.76355Z" stroke="#155DFC" stroke-width="1.441" stroke-linecap="round" stroke-linejoin="round"/>
<path d="M2.37769 5.04309L8.64605 8.6456L14.9144 5.04309" stroke="#155DFC" stroke-width="1.441" stroke-linecap="round" stroke-linejoin="round"/>
<path d="M8.646 15.8508V8.64575" stroke="#155DFC" stroke-width="1.441" stroke-linecap="round" stroke-linejoin="round"/>
</g>
<defs>
<clipPath id="clip0_26_7544">
<rect width="17.292" height="17.292" fill="white"/>
</clipPath>
</defs>
</svg>
