<svg width="22" height="22" viewBox="0 0 22 22" fill="none" xmlns="http://www.w3.org/2000/svg">
<g clip-path="url(#clip0_26_7382)">
<path d="M13.939 11.6093L15.3035 19.2881C15.3188 19.3785 15.3061 19.4714 15.2671 19.5544C15.2282 19.6374 15.1648 19.7066 15.0855 19.7526C15.0061 19.7986 14.9147 19.8193 14.8233 19.812C14.7319 19.8046 14.6449 19.7695 14.574 19.7114L11.3497 17.2914C11.1941 17.1751 11.005 17.1123 10.8107 17.1123C10.6164 17.1123 10.4273 17.1751 10.2717 17.2914L7.04203 19.7105C6.97117 19.7685 6.88429 19.8035 6.793 19.8109C6.70171 19.8183 6.61033 19.7977 6.53107 19.7518C6.4518 19.7059 6.38842 19.6369 6.34937 19.554C6.31032 19.4712 6.29747 19.3784 6.31252 19.2881L7.67607 11.6093" stroke="#155DFC" stroke-width="1.80125" stroke-linecap="round" stroke-linejoin="round"/>
<path d="M10.8076 12.6088C13.792 12.6088 16.2113 10.1895 16.2113 7.20506C16.2113 4.22065 13.792 1.8013 10.8076 1.8013C7.82315 1.8013 5.40381 4.22065 5.40381 7.20506C5.40381 10.1895 7.82315 12.6088 10.8076 12.6088Z" stroke="#155DFC" stroke-width="1.80125" stroke-linecap="round" stroke-linejoin="round"/>
</g>
<defs>
<clipPath id="clip0_26_7382">
<rect width="21.615" height="21.615" fill="white"/>
</clipPath>
</defs>
</svg>
