<svg width="18" height="18" viewBox="0 0 18 18" fill="none" xmlns="http://www.w3.org/2000/svg">
<g clip-path="url(#clip0_26_7841)">
<path d="M7.20496 8.646H10.087" stroke="#90A1B9" stroke-width="1.441" stroke-linecap="round" stroke-linejoin="round"/>
<path d="M7.20496 5.76367H10.087" stroke="#90A1B9" stroke-width="1.441" stroke-linecap="round" stroke-linejoin="round"/>
<path d="M10.087 15.1308V12.9693C10.087 12.5871 9.93514 12.2206 9.6649 11.9504C9.39466 11.6801 9.02814 11.5283 8.64596 11.5283C8.26378 11.5283 7.89726 11.6801 7.62702 11.9504C7.35678 12.2206 7.20496 12.5871 7.20496 12.9693V15.1308" stroke="#90A1B9" stroke-width="1.441" stroke-linecap="round" stroke-linejoin="round"/>
<path d="M4.32305 7.20545H2.88204C2.49987 7.20545 2.13334 7.35727 1.8631 7.62751C1.59286 7.89775 1.44104 8.26427 1.44104 8.64645V13.69C1.44104 14.0721 1.59286 14.4387 1.8631 14.7089C2.13334 14.9791 2.49987 15.131 2.88204 15.131H14.4101C14.7922 15.131 15.1588 14.9791 15.429 14.7089C15.6992 14.4387 15.8511 14.0721 15.8511 13.69V6.48495C15.8511 6.10277 15.6992 5.73625 15.429 5.46601C15.1588 5.19576 14.7922 5.04395 14.4101 5.04395H12.9691" stroke="#90A1B9" stroke-width="1.441" stroke-linecap="round" stroke-linejoin="round"/>
<path d="M4.323 15.1306V3.60262C4.323 3.22045 4.47482 2.85392 4.74506 2.58368C5.0153 2.31344 5.38182 2.16162 5.764 2.16162H11.528C11.9102 2.16162 12.2767 2.31344 12.547 2.58368C12.8172 2.85392 12.969 3.22045 12.969 3.60262V15.1306" stroke="#90A1B9" stroke-width="1.441" stroke-linecap="round" stroke-linejoin="round"/>
</g>
<defs>
<clipPath id="clip0_26_7841">
<rect width="17.292" height="17.292" fill="white"/>
</clipPath>
</defs>
</svg>
