<svg width="18" height="18" viewBox="0 0 18 18" fill="none" xmlns="http://www.w3.org/2000/svg">
<g clip-path="url(#clip0_26_7720)">
<path d="M8.646 12.9689V3.60242" stroke="#155DFC" stroke-width="1.441" stroke-linecap="round" stroke-linejoin="round"/>
<path d="M10.8076 9.36675C10.1842 9.18452 9.6367 8.80521 9.24702 8.28563C8.85734 7.76606 8.64651 7.13421 8.64612 6.48474C8.64573 7.13421 8.43491 7.76606 8.04523 8.28563C7.65555 8.80521 7.108 9.18452 6.48462 9.36675" stroke="#155DFC" stroke-width="1.441" stroke-linecap="round" stroke-linejoin="round"/>
<path d="M12.6794 4.68327C12.8452 4.39614 12.9427 4.07472 12.9644 3.74388C12.9861 3.41303 12.9314 3.08163 12.8045 2.7753C12.6776 2.46898 12.482 2.19595 12.2327 1.97734C11.9834 1.75872 11.6872 1.60039 11.367 1.51457C11.0467 1.42876 10.711 1.41777 10.3858 1.48245C10.0606 1.54714 9.75467 1.68577 9.49164 1.88761C9.2286 2.08946 9.01552 2.34911 8.86889 2.64648C8.72225 2.94384 8.64599 3.27096 8.64601 3.60252C8.64602 3.27096 8.56976 2.94384 8.42313 2.64648C8.27649 2.34911 8.06342 2.08946 7.80038 1.88761C7.53734 1.68577 7.23139 1.54714 6.90621 1.48245C6.58102 1.41777 6.24532 1.42876 5.92506 1.51457C5.6048 1.60039 5.30857 1.75872 5.0593 1.97734C4.81002 2.19595 4.61438 2.46898 4.48751 2.7753C4.36064 3.08163 4.30593 3.41303 4.32763 3.74388C4.34933 4.07472 4.44685 4.39614 4.61264 4.68327" stroke="#155DFC" stroke-width="1.441" stroke-linecap="round" stroke-linejoin="round"/>
<path d="M12.9668 3.69324C13.3903 3.80213 13.7835 4.00597 14.1166 4.28932C14.4496 4.57266 14.7138 4.92809 14.8892 5.32867C15.0646 5.72925 15.1465 6.16448 15.1287 6.60141C15.111 7.03833 14.9941 7.46549 14.7868 7.85053" stroke="#155DFC" stroke-width="1.441" stroke-linecap="round" stroke-linejoin="round"/>
<path d="M12.969 12.9697C13.6034 12.9697 14.2201 12.7604 14.7234 12.3741C15.2267 11.9879 15.5885 11.4465 15.7527 10.8337C15.9169 10.2209 15.8743 9.57103 15.6315 8.98491C15.3888 8.39879 14.9594 7.90915 14.41 7.59192" stroke="#155DFC" stroke-width="1.441" stroke-linecap="round" stroke-linejoin="round"/>
<path d="M14.3863 12.5968C14.4368 12.9875 14.4067 13.3844 14.2978 13.763C14.1889 14.1415 14.0035 14.4938 13.7532 14.7979C13.5028 15.102 13.1927 15.3516 12.8421 15.5312C12.4915 15.7108 12.1078 15.8167 11.7147 15.8422C11.3216 15.8677 10.9275 15.8123 10.5566 15.6795C10.1857 15.5468 9.84599 15.3393 9.55842 15.0701C9.27085 14.8009 9.04152 14.4756 8.8846 14.1142C8.72769 13.7529 8.64651 13.3632 8.64609 12.9693C8.64567 13.3632 8.56449 13.7529 8.40758 14.1142C8.25066 14.4756 8.02134 14.8009 7.73376 15.0701C7.44619 15.3393 7.10647 15.5468 6.7356 15.6795C6.36472 15.8123 5.97056 15.8677 5.57746 15.8422C5.18435 15.8167 4.80065 15.7108 4.45005 15.5312C4.09945 15.3516 3.78939 15.102 3.53902 14.7979C3.28865 14.4938 3.1033 14.1415 2.9944 13.763C2.88549 13.3844 2.85536 12.9875 2.90586 12.5968" stroke="#155DFC" stroke-width="1.441" stroke-linecap="round" stroke-linejoin="round"/>
<path d="M4.32304 12.9697C3.68864 12.9697 3.07197 12.7604 2.56867 12.3741C2.06537 11.9879 1.70357 11.4465 1.53937 10.8337C1.37517 10.2209 1.41775 9.57103 1.66051 8.98491C1.90327 8.39879 2.33264 7.90915 2.88204 7.59192" stroke="#155DFC" stroke-width="1.441" stroke-linecap="round" stroke-linejoin="round"/>
<path d="M4.32521 3.69324C3.9017 3.80213 3.50852 4.00597 3.17545 4.28932C2.84239 4.57266 2.57816 4.92809 2.4028 5.32867C2.22743 5.72925 2.14552 6.16448 2.16326 6.60141C2.18101 7.03833 2.29795 7.46549 2.50522 7.85053" stroke="#155DFC" stroke-width="1.441" stroke-linecap="round" stroke-linejoin="round"/>
</g>
<defs>
<clipPath id="clip0_26_7720">
<rect width="17.292" height="17.292" fill="white"/>
</clipPath>
</defs>
</svg>
