<svg width="35" height="35" viewBox="0 0 35 35" fill="none" xmlns="http://www.w3.org/2000/svg">
<g clip-path="url(#clip0_26_7447)">
<path d="M23.902 13.5542C24.2829 13.1734 24.497 12.6568 24.4971 12.1182C24.4971 11.5795 24.2832 11.0629 23.9024 10.682C23.5215 10.301 23.005 10.087 22.4663 10.0869C21.9276 10.0868 21.411 10.3008 21.0301 10.6816L11.4143 20.2996C11.247 20.4664 11.1233 20.6717 11.054 20.8976L10.1022 24.0332C10.0836 24.0955 10.0822 24.1617 10.0982 24.2248C10.1141 24.2878 10.1469 24.3454 10.1929 24.3913C10.2389 24.4373 10.2965 24.4699 10.3596 24.4857C10.4226 24.5016 10.4888 24.5001 10.5511 24.4814L13.6875 23.5303C13.9131 23.4617 14.1184 23.3387 14.2855 23.1722L23.902 13.5542Z" stroke="#90A1B9" stroke-width="1.441" stroke-linecap="round" stroke-linejoin="round"/>
</g>
<defs>
<clipPath id="clip0_26_7447">
<rect width="17.292" height="17.292" fill="white" transform="translate(8.646 8.64612)"/>
</clipPath>
</defs>
</svg>
