<svg width="18" height="18" viewBox="0 0 18 18" fill="none" xmlns="http://www.w3.org/2000/svg">
<g clip-path="url(#clip0_26_7745)">
<path d="M1.44104 6.84537C1.44105 6.0436 1.68428 5.26069 2.13858 4.60004C2.59289 3.9394 3.2369 3.43211 3.98557 3.14516C4.73424 2.85821 5.55233 2.80512 6.33181 2.99288C7.11129 3.18064 7.81548 3.60043 8.35137 4.19681C8.38911 4.23716 8.43475 4.26934 8.48544 4.29133C8.53613 4.31333 8.5908 4.32468 8.64605 4.32468C8.70131 4.32468 8.75598 4.31333 8.80667 4.29133C8.85736 4.26934 8.90299 4.23716 8.94074 4.19681C9.47495 3.59656 10.1793 3.17324 10.96 2.98319C11.7408 2.79315 12.5609 2.84539 13.3112 3.13297C14.0615 3.42055 14.7065 3.92982 15.1602 4.59301C15.6139 5.25619 15.8549 6.04184 15.8511 6.84537C15.8511 8.49532 14.7703 9.72737 13.6896 10.8081L9.73257 14.6361C9.59832 14.7903 9.43279 14.9142 9.24699 14.9995C9.06118 15.0848 8.85935 15.1296 8.65491 15.1309C8.45046 15.1322 8.24808 15.0899 8.06121 15.007C7.87434 14.9241 7.70726 14.8023 7.57107 14.6498L3.60254 10.8081C2.52179 9.72737 1.44104 8.50252 1.44104 6.84537Z" stroke="#155DFC" stroke-width="1.441" stroke-linecap="round" stroke-linejoin="round"/>
</g>
<defs>
<clipPath id="clip0_26_7745">
<rect width="17.292" height="17.292" fill="white"/>
</clipPath>
</defs>
</svg>
