<svg width="18" height="18" viewBox="0 0 18 18" fill="none" xmlns="http://www.w3.org/2000/svg">
<g clip-path="url(#clip0_26_7461)">
<path d="M3.60254 3.96273C3.60254 3.29392 3.86822 2.6525 4.34114 2.17958C4.81406 1.70666 5.45548 1.44098 6.12429 1.44098H8.64605V6.48449H6.12429C5.45548 6.48449 4.81406 6.2188 4.34114 5.74588C3.86822 5.27296 3.60254 4.63154 3.60254 3.96273Z" stroke="#155DFC" stroke-width="1.441" stroke-linecap="round" stroke-linejoin="round"/>
<path d="M8.646 1.44098H11.1678C11.4989 1.44098 11.8268 1.50621 12.1328 1.63294C12.4387 1.75967 12.7167 1.94542 12.9509 2.17958C13.1851 2.41375 13.3708 2.69175 13.4975 2.9977C13.6243 3.30365 13.6895 3.63157 13.6895 3.96273C13.6895 4.2939 13.6243 4.62181 13.4975 4.92777C13.3708 5.23372 13.1851 5.51172 12.9509 5.74588C12.7167 5.98005 12.4387 6.1658 12.1328 6.29253C11.8268 6.41926 11.4989 6.48449 11.1678 6.48449H8.646V1.44098Z" stroke="#155DFC" stroke-width="1.441" stroke-linecap="round" stroke-linejoin="round"/>
<path d="M8.646 9.00607C8.646 8.67491 8.71122 8.34699 8.83795 8.04104C8.96468 7.73508 9.15043 7.45709 9.3846 7.22292C9.61877 6.98875 9.89676 6.803 10.2027 6.67627C10.5087 6.54954 10.8366 6.48431 11.1678 6.48431C11.4989 6.48431 11.8268 6.54954 12.1328 6.67627C12.4387 6.803 12.7167 6.98875 12.9509 7.22292C13.1851 7.45709 13.3708 7.73508 13.4975 8.04104C13.6243 8.34699 13.6895 8.67491 13.6895 9.00607C13.6895 9.33723 13.6243 9.66515 13.4975 9.9711C13.3708 10.2771 13.1851 10.5551 12.9509 10.7892C12.7167 11.0234 12.4387 11.2091 12.1328 11.3359C11.8268 11.4626 11.4989 11.5278 11.1678 11.5278C10.8366 11.5278 10.5087 11.4626 10.2027 11.3359C9.89676 11.2091 9.61877 11.0234 9.3846 10.7892C9.15043 10.5551 8.96468 10.2771 8.83795 9.9711C8.71122 9.66515 8.646 9.33723 8.646 9.00607Z" stroke="#155DFC" stroke-width="1.441" stroke-linecap="round" stroke-linejoin="round"/>
<path d="M3.60254 14.0494C3.60254 13.3806 3.86822 12.7392 4.34114 12.2663C4.81406 11.7933 5.45548 11.5276 6.12429 11.5276H8.64605V14.0494C8.64605 14.7182 8.38036 15.3596 7.90744 15.8326C7.43452 16.3055 6.79311 16.5712 6.12429 16.5712C5.45548 16.5712 4.81406 16.3055 4.34114 15.8326C3.86822 15.3596 3.60254 14.7182 3.60254 14.0494Z" stroke="#155DFC" stroke-width="1.441" stroke-linecap="round" stroke-linejoin="round"/>
<path d="M3.60254 9.00607C3.60254 8.33726 3.86822 7.69584 4.34114 7.22292C4.81406 6.75 5.45548 6.48431 6.12429 6.48431H8.64605V11.5278H6.12429C5.45548 11.5278 4.81406 11.2621 4.34114 10.7892C3.86822 10.3163 3.60254 9.67488 3.60254 9.00607Z" stroke="#155DFC" stroke-width="1.441" stroke-linecap="round" stroke-linejoin="round"/>
</g>
<defs>
<clipPath id="clip0_26_7461">
<rect width="17.292" height="17.292" fill="white"/>
</clipPath>
</defs>
</svg>
