<svg width="18" height="18" viewBox="0 0 18 18" fill="none" xmlns="http://www.w3.org/2000/svg">
<g clip-path="url(#clip0_26_7483)">
<path d="M8.64593 15.851C6.73504 15.851 4.90242 15.0919 3.55122 13.7407C2.20002 12.3895 1.44092 10.5569 1.44092 8.64599C1.44092 6.73511 2.20002 4.90248 3.55122 3.55128C4.90242 2.20008 6.73504 1.44098 8.64593 1.44098C10.5568 1.44098 12.3894 2.12417 13.7406 3.34025C15.0919 4.55633 15.8509 6.20569 15.8509 7.92549C15.8509 8.88094 15.4714 9.79725 14.7958 10.4728C14.1202 11.1485 13.2039 11.528 12.2484 11.528H10.6273C10.3932 11.528 10.1636 11.5932 9.96443 11.7163C9.76524 11.8394 9.60427 12.0156 9.49955 12.225C9.39483 12.4344 9.3505 12.6689 9.37153 12.9021C9.39256 13.1353 9.47811 13.3581 9.61861 13.5454L9.83476 13.8336C9.97526 14.0209 10.0608 14.2437 10.0818 14.4769C10.1029 14.7101 10.0585 14.9446 9.95382 15.154C9.8491 15.3635 9.68813 15.5396 9.48894 15.6627C9.28975 15.7858 9.06022 15.851 8.82606 15.851H8.64593Z" stroke="#155DFC" stroke-width="1.441" stroke-linecap="round" stroke-linejoin="round"/>
<path d="M9.72671 5.04332C9.92567 5.04332 10.087 4.88203 10.087 4.68307C10.087 4.4841 9.92567 4.32281 9.72671 4.32281C9.52774 4.32281 9.36646 4.4841 9.36646 4.68307C9.36646 4.88203 9.52774 5.04332 9.72671 5.04332Z" fill="#155DFC" stroke="#155DFC" stroke-width="1.441" stroke-linecap="round" stroke-linejoin="round"/>
<path d="M12.6088 7.92515C12.8077 7.92515 12.969 7.76386 12.969 7.5649C12.969 7.36594 12.8077 7.20465 12.6088 7.20465C12.4098 7.20465 12.2485 7.36594 12.2485 7.5649C12.2485 7.76386 12.4098 7.92515 12.6088 7.92515Z" fill="#155DFC" stroke="#155DFC" stroke-width="1.441" stroke-linecap="round" stroke-linejoin="round"/>
<path d="M4.68325 9.36631C4.88221 9.36631 5.0435 9.20502 5.0435 9.00606C5.0435 8.8071 4.88221 8.64581 4.68325 8.64581C4.48429 8.64581 4.323 8.8071 4.323 9.00606C4.323 9.20502 4.48429 9.36631 4.68325 9.36631Z" fill="#155DFC" stroke="#155DFC" stroke-width="1.441" stroke-linecap="round" stroke-linejoin="round"/>
<path d="M6.12417 5.76365C6.32313 5.76365 6.48442 5.60236 6.48442 5.4034C6.48442 5.20444 6.32313 5.04315 6.12417 5.04315C5.92521 5.04315 5.76392 5.20444 5.76392 5.4034C5.76392 5.60236 5.92521 5.76365 6.12417 5.76365Z" fill="#155DFC" stroke="#155DFC" stroke-width="1.441" stroke-linecap="round" stroke-linejoin="round"/>
</g>
<defs>
<clipPath id="clip0_26_7483">
<rect width="17.292" height="17.292" fill="white"/>
</clipPath>
</defs>
</svg>
