<svg width="18" height="18" viewBox="0 0 18 18" fill="none" xmlns="http://www.w3.org/2000/svg">
<path d="M13.6895 2.16125H3.6025C2.80666 2.16125 2.1615 2.80641 2.1615 3.60226V13.6893C2.1615 14.4851 2.80666 15.1303 3.6025 15.1303H13.6895C14.4854 15.1303 15.1305 14.4851 15.1305 13.6893V3.60226C15.1305 2.80641 14.4854 2.16125 13.6895 2.16125Z" stroke="#155DFC" stroke-width="1.441" stroke-linecap="round" stroke-linejoin="round"/>
<path d="M6.48446 7.9251C7.2803 7.9251 7.92546 7.27994 7.92546 6.48409C7.92546 5.68825 7.2803 5.04309 6.48446 5.04309C5.68862 5.04309 5.04346 5.68825 5.04346 6.48409C5.04346 7.27994 5.68862 7.9251 6.48446 7.9251Z" stroke="#155DFC" stroke-width="1.441" stroke-linecap="round" stroke-linejoin="round"/>
<path d="M15.1305 10.8072L12.9071 8.58377C12.6368 8.31362 12.2704 8.16187 11.8883 8.16187C11.5062 8.16187 11.1397 8.31362 10.8695 8.58377L4.323 15.1302" stroke="#155DFC" stroke-width="1.441" stroke-linecap="round" stroke-linejoin="round"/>
</svg>
