<svg width="18" height="18" viewBox="0 0 18 18" fill="none" xmlns="http://www.w3.org/2000/svg">
<path d="M8.64593 15.8509C12.6252 15.8509 15.8509 12.6252 15.8509 8.64593C15.8509 4.66671 12.6252 1.44092 8.64593 1.44092C4.66671 1.44092 1.44092 4.66671 1.44092 8.64593C1.44092 12.6252 4.66671 15.8509 8.64593 15.8509Z" stroke="#155DFC" stroke-width="1.441" stroke-linecap="round" stroke-linejoin="round"/>
<path d="M8.64601 12.9693C11.0335 12.9693 12.969 11.0338 12.969 8.64625C12.969 6.25872 11.0335 4.32324 8.64601 4.32324C6.25848 4.32324 4.323 6.25872 4.323 8.64625C4.323 11.0338 6.25848 12.9693 8.64601 12.9693Z" stroke="#155DFC" stroke-width="1.441" stroke-linecap="round" stroke-linejoin="round"/>
<path d="M8.64608 10.0876C9.44193 10.0876 10.0871 9.44241 10.0871 8.64657C10.0871 7.85073 9.44193 7.20557 8.64608 7.20557C7.85024 7.20557 7.20508 7.85073 7.20508 8.64657C7.20508 9.44241 7.85024 10.0876 8.64608 10.0876Z" stroke="#155DFC" stroke-width="1.441" stroke-linecap="round" stroke-linejoin="round"/>
</svg>
