<svg width="18" height="18" viewBox="0 0 18 18" fill="none" xmlns="http://www.w3.org/2000/svg">
<g clip-path="url(#clip0_26_7663)">
<path d="M9.2439 1.57062C9.05617 1.48499 8.85223 1.44067 8.64589 1.44067C8.43954 1.44067 8.2356 1.48499 8.04787 1.57062L1.87317 4.38058C1.74532 4.43695 1.63662 4.52929 1.5603 4.64634C1.48399 4.76339 1.44336 4.90011 1.44336 5.03984C1.44336 5.17957 1.48399 5.31628 1.5603 5.43333C1.63662 5.55038 1.74532 5.64272 1.87317 5.69909L8.05507 8.51625C8.24281 8.60189 8.44675 8.6462 8.65309 8.6462C8.85943 8.6462 9.06337 8.60189 9.25111 8.51625L15.433 5.7063C15.5609 5.64992 15.6696 5.55759 15.7459 5.44054C15.8222 5.32349 15.8628 5.18677 15.8628 5.04704C15.8628 4.90731 15.8222 4.77059 15.7459 4.65354C15.6696 4.53649 15.5609 4.44416 15.433 4.38778L9.2439 1.57062Z" stroke="#155DFC" stroke-width="1.441" stroke-linecap="round" stroke-linejoin="round"/>
<path d="M1.44092 8.646C1.44058 8.7838 1.47977 8.91882 1.55384 9.03503C1.6279 9.15124 1.73375 9.24377 1.85881 9.30165L8.05512 12.1188C8.24188 12.2034 8.44453 12.2471 8.64954 12.2471C8.85455 12.2471 9.0572 12.2034 9.24395 12.1188L15.4259 9.30886C15.5534 9.25153 15.6615 9.15834 15.737 9.04064C15.8125 8.92294 15.8521 8.78582 15.851 8.646" stroke="#155DFC" stroke-width="1.441" stroke-linecap="round" stroke-linejoin="round"/>
<path d="M1.44092 12.2487C1.44058 12.3865 1.47977 12.5215 1.55384 12.6377C1.6279 12.7539 1.73375 12.8464 1.85881 12.9043L8.05512 15.7215C8.24188 15.806 8.44453 15.8498 8.64954 15.8498C8.85455 15.8498 9.0572 15.806 9.24395 15.7215L15.4259 12.9115C15.5534 12.8542 15.6615 12.761 15.737 12.6433C15.8125 12.5256 15.8521 12.3885 15.851 12.2487" stroke="#155DFC" stroke-width="1.441" stroke-linecap="round" stroke-linejoin="round"/>
</g>
<defs>
<clipPath id="clip0_26_7663">
<rect width="17.292" height="17.292" fill="white"/>
</clipPath>
</defs>
</svg>
