<svg width="18" height="18" viewBox="0 0 18 18" fill="none" xmlns="http://www.w3.org/2000/svg">
<path d="M4.32292 13.6894C5.91461 13.6894 7.20493 12.3991 7.20493 10.8074C7.20493 9.21573 5.91461 7.92542 4.32292 7.92542C2.73124 7.92542 1.44092 9.21573 1.44092 10.8074C1.44092 12.3991 2.73124 13.6894 4.32292 13.6894Z" stroke="#155DFC" stroke-width="1.441" stroke-linecap="round" stroke-linejoin="round"/>
<path d="M12.9689 13.6894C14.5606 13.6894 15.8509 12.3991 15.8509 10.8074C15.8509 9.21573 14.5606 7.92542 12.9689 7.92542C11.3772 7.92542 10.0869 9.21573 10.0869 10.8074C10.0869 12.3991 11.3772 13.6894 12.9689 13.6894Z" stroke="#155DFC" stroke-width="1.441" stroke-linecap="round" stroke-linejoin="round"/>
<path d="M10.0871 10.8071C10.0871 10.4249 9.93526 10.0584 9.66502 9.78815C9.39478 9.51791 9.02826 9.36609 8.64608 9.36609C8.2639 9.36609 7.89738 9.51791 7.62714 9.78815C7.3569 10.0584 7.20508 10.4249 7.20508 10.8071" stroke="#155DFC" stroke-width="1.441" stroke-linecap="round" stroke-linejoin="round"/>
<path d="M1.80127 9.36643L3.60252 5.04342C4.10687 4.10677 4.61123 3.60242 5.76403 3.60242" stroke="#155DFC" stroke-width="1.441" stroke-linecap="round" stroke-linejoin="round"/>
<path d="M15.4908 9.36643L13.6896 5.04342C13.1852 4.10677 12.6088 3.60242 11.5281 3.60242" stroke="#155DFC" stroke-width="1.441" stroke-linecap="round" stroke-linejoin="round"/>
</svg>
