<svg width="16" height="16" viewBox="0 0 16 16" fill="none" xmlns="http://www.w3.org/2000/svg">
<g clip-path="url(#clip0_86_298)">
<path d="M4.64101 3.20605C5.11301 3.20605 5.53801 3.24705 5.92501 3.33105C6.31301 3.41205 6.64101 3.55005 6.91901 3.73705C7.19234 3.92505 7.40701 4.17505 7.56301 4.48705C7.71301 4.79772 7.78801 5.18305 7.78801 5.64305C7.78801 6.13905 7.67534 6.55272 7.45001 6.88405C7.22201 7.21505 6.89101 7.48405 6.44701 7.69705C7.05301 7.87205 7.50001 8.17805 7.80001 8.61305C8.10001 9.05105 8.24401 9.57605 8.24401 10.1941C8.24334 10.6927 8.14767 11.1231 7.95701 11.4851C7.77141 11.8391 7.50485 12.1444 7.17901 12.3761C6.85301 12.6067 6.48001 12.7764 6.06001 12.8851C5.64004 12.9961 5.2074 13.0519 4.77301 13.0511H0.00100708V3.20705H4.64201L4.64101 3.20605ZM4.35901 7.18105C4.74367 7.18105 5.06134 7.08939 5.31201 6.90605C5.56201 6.72505 5.68101 6.42505 5.68101 6.01205C5.68101 5.78272 5.64034 5.59405 5.55901 5.44605C5.48083 5.3033 5.3654 5.18441 5.22501 5.10205C5.07854 5.01384 4.9161 4.9554 4.74701 4.93005C4.56363 4.89614 4.37749 4.8794 4.19101 4.88005H2.16601V7.18005H4.36001L4.35901 7.18105ZM4.47801 11.3721C4.69134 11.3734 4.89334 11.3524 5.08401 11.3091C5.26583 11.2737 5.43884 11.2027 5.59301 11.1001C5.73701 11.0031 5.85901 10.8751 5.94601 10.7061C6.03267 10.5401 6.07534 10.3277 6.07401 10.0691C6.07334 9.56239 5.93067 9.19972 5.64601 8.98105C5.36134 8.76572 4.98434 8.65839 4.51501 8.65905H2.16501V11.3681H4.47801V11.3721ZM11.331 11.3381C11.625 11.6247 12.047 11.7684 12.597 11.7691C12.991 11.7691 13.335 11.6691 13.619 11.4691C13.903 11.2691 14.075 11.0571 14.141 10.8381H15.866C15.588 11.6971 15.169 12.3071 14.594 12.6761C14.028 13.0451 13.335 13.2321 12.531 13.2321C12.0122 13.2393 11.4968 13.148 11.012 12.9631C10.5775 12.7945 10.185 12.5331 9.86201 12.1971C9.54325 11.8536 9.29671 11.4496 9.13701 11.0091C8.96302 10.5217 8.87635 10.0075 8.88101 9.49005C8.88101 8.95605 8.96834 8.45905 9.14301 7.99905C9.32101 7.53605 9.56501 7.14005 9.89001 6.80505C10.215 6.47005 10.596 6.20505 11.046 6.01105C11.5166 5.81238 12.0232 5.7133 12.534 5.72005C13.1367 5.71939 13.6647 5.83705 14.118 6.07305C14.5687 6.30772 14.9397 6.62239 15.231 7.01705C15.668 7.60905 15.728 7.86405 15.856 8.37005C15.984 8.87605 16.028 9.40405 15.993 9.95805H10.846C10.846 10.5171 11.034 11.0521 11.33 11.3361L11.331 11.3381ZM13.578 7.59405C13.347 7.33805 12.95 7.19705 12.472 7.19705C12.1587 7.19705 11.8993 7.25005 11.694 7.35605C11.5037 7.45291 11.3347 7.58687 11.197 7.75005C11.0763 7.89809 10.9871 8.06927 10.935 8.25305C10.8843 8.42639 10.854 8.58272 10.844 8.72205H14.032C13.985 8.22205 13.813 7.85305 13.579 7.59405H13.578ZM10.444 4.00005H14.435V4.97205H10.444V4.00005Z" fill="#62748E"/>
</g>
<defs>
<clipPath id="clip0_86_298">
<rect width="16" height="16" fill="white"/>
</clipPath>
</defs>
</svg>
