<svg width="16" height="16" viewBox="0 0 16 16" fill="none" xmlns="http://www.w3.org/2000/svg">
<path d="M10.6667 5.33337C11.7275 5.33337 12.7449 5.7548 13.4951 6.50495C14.2452 7.25509 14.6667 8.27251 14.6667 9.33337V14H12V9.33337C12 8.97975 11.8595 8.64061 11.6095 8.39057C11.3594 8.14052 11.0203 8.00004 10.6667 8.00004C10.313 8.00004 9.9739 8.14052 9.72385 8.39057C9.4738 8.64061 9.33332 8.97975 9.33332 9.33337V14H6.66666V9.33337C6.66666 8.27251 7.08808 7.25509 7.83823 6.50495C8.58838 5.7548 9.60579 5.33337 10.6667 5.33337Z" stroke="#62748E" stroke-width="1.33333" stroke-linecap="round" stroke-linejoin="round"/>
<path d="M4.00001 6H1.33334V14H4.00001V6Z" stroke="#62748E" stroke-width="1.33333" stroke-linecap="round" stroke-linejoin="round"/>
<path d="M2.66668 4.00004C3.40306 4.00004 4.00001 3.40309 4.00001 2.66671C4.00001 1.93033 3.40306 1.33337 2.66668 1.33337C1.9303 1.33337 1.33334 1.93033 1.33334 2.66671C1.33334 3.40309 1.9303 4.00004 2.66668 4.00004Z" stroke="#62748E" stroke-width="1.33333" stroke-linecap="round" stroke-linejoin="round"/>
</svg>
